<?xml version="1.0" standalone="no"?>
<!DOCTYPE svg PUBLIC "-//W3C//DTD SVG 20010904//EN"
 "http://www.w3.org/TR/2001/REC-SVG-20010904/DTD/svg10.dtd">
<svg version="1.0" xmlns="http://www.w3.org/2000/svg"
 width="700.000000pt" height="700.000000pt" viewBox="0 0 700.000000 700.000000"
 preserveAspectRatio="xMidYMid meet">
<metadata>
Created by potrace 1.14, written by Peter Selinger 2001-2017
</metadata>
<g transform="translate(0.000000,700.000000) scale(0.100000,-0.100000)"
fill="#000000" stroke="none">
<path d="M3419 6903 c-163 -197 -312 -459 -384 -676 -73 -218 -95 -413 -76
-662 41 -512 202 -903 421 -1017 65 -33 176 -33 243 1 137 70 269 285 342 556
57 213 93 524 81 715 -18 290 -126 590 -313 875 -81 123 -217 295 -233 295 -5
0 -41 -39 -81 -87z"/>
<path d="M1030 5932 c0 -107 42 -346 90 -515 107 -373 283 -634 603 -896 188
-153 422 -287 607 -347 72 -23 103 -27 205 -28 113 -1 124 1 178 28 109 53
154 151 144 316 -15 274 -229 653 -552 975 -157 158 -302 255 -508 340 -212
88 -554 165 -729 165 -37 0 -38 -1 -38 -38z"/>
<path d="M5770 5955 c-211 -29 -428 -89 -607 -168 -247 -108 -438 -260 -641
-509 -396 -487 -500 -974 -235 -1104 54 -27 66 -29 178 -28 111 0 128 3 229
37 369 126 796 466 996 792 126 205 226 509 266 805 7 58 14 124 14 148 l0 42
-52 -1 c-29 -1 -96 -7 -148 -14z"/>
<path d="M3345 4266 c-323 -75 -555 -316 -611 -637 -66 -381 153 -744 531
-876 75 -26 91 -28 240 -28 149 0 165 2 240 28 533 186 713 820 356 1252 -91
110 -226 198 -376 245 -89 28 -290 37 -380 16z"/>
<path d="M1130 4043 c-268 -26 -561 -137 -825 -310 -123 -81 -295 -217 -295
-233 0 -16 172 -152 295 -233 285 -187 585 -295 875 -313 199 -12 539 29 752
91 253 74 450 201 520 335 18 35 23 61 23 120 0 91 -22 139 -98 218 -131 134
-369 236 -682 291 -190 33 -431 48 -565 34z"/>
<path d="M5536 4040 c-322 -29 -606 -109 -789 -223 -99 -62 -189 -159 -212
-227 -102 -307 339 -576 1030 -631 83 -6 197 -8 255 -5 290 18 590 126 875
313 123 81 295 217 295 233 0 16 -172 152 -295 233 -215 141 -456 244 -673
288 -115 23 -344 31 -486 19z"/>
<path d="M2405 2846 c-257 -59 -565 -246 -846 -514 -248 -235 -407 -547 -489
-956 -24 -120 -47 -332 -37 -343 11 -10 223 13 343 37 485 97 802 284 1101
651 397 488 502 975 237 1105 -50 24 -72 29 -154 31 -54 1 -121 -3 -155 -11z"/>
<path d="M4323 2842 c-74 -27 -118 -64 -150 -129 -26 -54 -28 -66 -27 -178 0
-112 3 -128 38 -230 82 -242 250 -500 484 -746 232 -244 530 -399 934 -484
131 -28 353 -53 365 -42 10 11 -13 223 -37 343 -81 408 -242 721 -489 956
-247 235 -507 404 -746 484 -139 46 -286 57 -372 26z"/>
<path d="M3402 2464 c-98 -36 -225 -191 -298 -364 -100 -238 -167 -648 -150
-919 19 -294 125 -590 313 -876 81 -123 217 -295 233 -295 16 0 152 172 233
295 187 285 295 585 313 875 12 199 -29 539 -91 752 -74 253 -201 451 -335
519 -57 30 -156 35 -218 13z"/>
</g>
</svg>
