<?xml version="1.0" encoding="UTF-8" standalone="no"?>
<svg
   xmlns:dc="http://purl.org/dc/elements/1.1/"
   xmlns:cc="http://creativecommons.org/ns#"
   xmlns:rdf="http://www.w3.org/1999/02/22-rdf-syntax-ns#"
   xmlns:svg="http://www.w3.org/2000/svg"
   xmlns="http://www.w3.org/2000/svg"
   xmlns:sodipodi="http://sodipodi.sourceforge.net/DTD/sodipodi-0.dtd"
   xmlns:inkscape="http://www.inkscape.org/namespaces/inkscape"
   width="30.872288mm"
   height="30.872288mm"
   viewBox="0 0 30.872288 30.872288"
   version="1.1"
   id="svg8"
   inkscape:version="1.0.2-2 (e86c870879, 2021-01-15)"
   sodipodi:docname="Logo.svg">
  <defs
     id="defs2">
    <clipPath
       clipPathUnits="userSpaceOnUse"
       id="clipPath26">
      <path
         d="M 0,99.667 H 200 V 0 H 0 Z"
         id="path24" />
    </clipPath>
  </defs>
  <sodipodi:namedview
     id="base"
     pagecolor="#ffffff"
     bordercolor="#666666"
     borderopacity="1.0"
     inkscape:pageopacity="0.0"
     inkscape:pageshadow="2"
     inkscape:zoom="0.35"
     inkscape:cx="384.05562"
     inkscape:cy="466.91276"
     inkscape:document-units="mm"
     inkscape:current-layer="layer1"
     inkscape:document-rotation="0"
     showgrid="false"
     inkscape:window-width="1920"
     inkscape:window-height="1137"
     inkscape:window-x="-8"
     inkscape:window-y="-8"
     inkscape:window-maximized="1" />
  <metadata
     id="metadata5">
    <rdf:RDF>
      <cc:Work
         rdf:about="">
        <dc:format>image/svg+xml</dc:format>
        <dc:type
           rdf:resource="http://purl.org/dc/dcmitype/StillImage" />
        <dc:title></dc:title>
      </cc:Work>
    </rdf:RDF>
  </metadata>
  <g
     inkscape:label="Ebene 1"
     inkscape:groupmode="layer"
     id="layer1"
     transform="translate(-4.2186176,-24.629332)">
    <g
       id="g22"
       clip-path="url(#clipPath26)"
       transform="matrix(0.35277777,0,0,-0.35277777,-15.62298,57.645592)">
      <g
         id="g28"
         transform="translate(90.2292,49.8229)">
        <path
           d="m 0,0 c 0,5.424 4.393,9.825 9.825,9.825 5.428,0 9.821,-4.401 9.821,-9.825 0,-5.428 -4.393,-9.829 -9.821,-9.829 C 4.393,-9.829 0,-5.428 0,0"
           style="fill:#ec008c;fill-opacity:1;fill-rule:nonzero;stroke:none"
           id="path30" />
      </g>
      <g
         id="g32"
         transform="translate(106.8884,78.0514)">
        <path
           d="m 0,0 c 0,8.581 -6.888,15.538 -6.888,15.538 0,0 -6.889,-6.957 -6.889,-15.538 0,-8.582 3.084,-15.538 6.889,-15.538 C -3.084,-15.538 0,-8.582 0,0"
           style="fill:#ec008c;fill-opacity:1;fill-rule:nonzero;stroke:none"
           id="path34" />
      </g>
      <g
         id="g36"
         transform="translate(93.1115,21.6154)">
        <path
           d="m 0,0 c 0,-8.582 6.889,-15.538 6.889,-15.538 0,0 6.888,6.956 6.888,15.538 0,8.582 -3.084,15.538 -6.888,15.538 C 3.084,15.538 0,8.582 0,0"
           style="fill:#ec008c;fill-opacity:1;fill-rule:nonzero;stroke:none"
           id="path38" />
      </g>
      <g
         id="g40"
         transform="translate(71.7819,56.7218)">
        <path
           d="m 0,0 c -8.581,0 -15.538,-6.889 -15.538,-6.889 0,0 6.957,-6.888 15.538,-6.888 8.582,0 15.538,3.084 15.538,6.888 C 15.538,-3.084 8.582,0 0,0"
           style="fill:#ec008c;fill-opacity:1;fill-rule:nonzero;stroke:none"
           id="path42" />
      </g>
      <g
         id="g44"
         transform="translate(128.2179,42.945)">
        <path
           d="m 0,0 c 8.582,0 15.538,6.888 15.538,6.888 0,0 -6.956,6.889 -15.538,6.889 -8.582,0 -15.538,-3.084 -15.538,-6.889 C -15.538,3.084 -8.582,0 0,0"
           style="fill:#ec008c;fill-opacity:1;fill-rule:nonzero;stroke:none"
           id="path46" />
      </g>
      <g
         id="g48"
         transform="translate(75.1759,34.7511)">
        <path
           d="m 0,0 c -6.068,-6.068 -6.116,-15.858 -6.116,-15.858 0,0 9.79,0.048 15.858,6.116 6.068,6.068 8.806,13.168 6.116,15.858 C 13.168,8.806 6.068,6.068 0,0"
           style="fill:#ec008c;fill-opacity:1;fill-rule:nonzero;stroke:none"
           id="path50" />
      </g>
      <g
         id="g52"
         transform="translate(124.8239,64.9157)">
        <path
           d="m 0,0 c 6.068,6.068 6.116,15.858 6.116,15.858 0,0 -9.79,-0.048 -15.858,-6.116 C -15.81,3.674 -18.548,-3.426 -15.858,-6.116 -13.167,-8.806 -6.068,-6.068 0,0"
           style="fill:#ec008c;fill-opacity:1;fill-rule:nonzero;stroke:none"
           id="path54" />
      </g>
      <g
         id="g56"
         transform="translate(115.0822,25.0094)">
        <path
           d="m 0,0 c 6.068,-6.068 15.858,-6.116 15.858,-6.116 0,0 -0.048,9.79 -6.116,15.858 C 3.674,15.81 -3.426,18.548 -6.116,15.858 -8.806,13.167 -6.068,6.068 0,0"
           style="fill:#ec008c;fill-opacity:1;fill-rule:nonzero;stroke:none"
           id="path58" />
      </g>
      <g
         id="g60"
         transform="translate(84.9176,74.6574)">
        <path
           d="m 0,0 c -6.068,6.068 -15.858,6.116 -15.858,6.116 0,0 0.048,-9.79 6.116,-15.858 6.068,-6.068 13.168,-8.806 15.858,-6.116 C 8.806,-13.168 6.068,-6.068 0,0"
           style="fill:#ec008c;fill-opacity:1;fill-rule:nonzero;stroke:none"
           id="path62" />
      </g>
    </g>
  </g>
</svg>
